<?xml version="1.0" encoding="UTF-8" standalone="no"?>
<!-- Created with Inkscape (http://www.inkscape.org/) -->

<svg
   xmlns:dc="http://purl.org/dc/elements/1.1/"
   xmlns:cc="http://creativecommons.org/ns#"
   xmlns:rdf="http://www.w3.org/1999/02/22-rdf-syntax-ns#"
   xmlns:svg="http://www.w3.org/2000/svg"
   xmlns="http://www.w3.org/2000/svg"
   xmlns:sodipodi="http://sodipodi.sourceforge.net/DTD/sodipodi-0.dtd"
   xmlns:inkscape="http://www.inkscape.org/namespaces/inkscape"
   width="210mm"
   height="297mm"
   viewBox="0 0 210 297"
   version="1.1"
   id="svg8"
   inkscape:version="0.92.4 (5da689c313, 2019-01-14)"
   sodipodi:docname="design.svg">
  <defs
     id="defs2" />
  <sodipodi:namedview
     id="base"
     pagecolor="#ffffff"
     bordercolor="#666666"
     borderopacity="1.0"
     inkscape:pageopacity="0.0"
     inkscape:pageshadow="2"
     inkscape:zoom="63.356767"
     inkscape:cx="18.349526"
     inkscape:cy="1103.0582"
     inkscape:document-units="mm"
     inkscape:current-layer="layer1"
     showgrid="true"
     inkscape:snap-smooth-nodes="true"
     inkscape:window-width="2560"
     inkscape:window-height="1361"
     inkscape:window-x="-9"
     inkscape:window-y="-9"
     inkscape:window-maximized="1">
    <inkscape:grid
       type="xygrid"
       id="grid815"
       empspacing="4" />
  </sodipodi:namedview>
  <metadata
     id="metadata5">
    <rdf:RDF>
      <cc:Work
         rdf:about="">
        <dc:format>image/svg+xml</dc:format>
        <dc:type
           rdf:resource="http://purl.org/dc/dcmitype/StillImage" />
        <dc:title></dc:title>
      </cc:Work>
    </rdf:RDF>
  </metadata>
  <g
     inkscape:label="Layer 1"
     inkscape:groupmode="layer"
     id="layer1">
    <path
       style="fill:#000000;fill-opacity:1;stroke:none;stroke-width:0.52916664px;stroke-linecap:butt;stroke-linejoin:miter;stroke-opacity:1"
       d="m 3.1750001,7.016667 c -1.0583334,0 -1.0583334,-1.0583334 -1.0583334,-1.0583334 0,0 0,0.5291668 0,-0.5291666 0,-1.0583334 1.0583334,-1.0583334 1.0583334,-1.0583334 0,0 0,0 1.0583334,0 1.0583332,0 1.0583332,1.0583334 1.0583332,1.0583334 0,0 0,-0.5291666 0,0.5291666 0,1.0583334 -1.0583332,1.0583334 -1.0583332,1.0583334 z"
       id="path817"
       inkscape:connector-curvature="0" />
    <rect
       style="opacity:1;vector-effect:none;fill:#000000;fill-opacity:1;fill-rule:nonzero;stroke:none;stroke-width:1.0583334;stroke-linecap:butt;stroke-linejoin:miter;stroke-miterlimit:4;stroke-dasharray:none;stroke-dashoffset:0;stroke-opacity:1;paint-order:stroke fill markers"
       id="rect821"
       width="1.0583333"
       height="1.5875"
       x="3.175"
       y="3.3125" />
    <path
       style="fill:#000000;fill-opacity:1;stroke:none;stroke-width:0.52916664px;stroke-linecap:butt;stroke-linejoin:miter;stroke-opacity:1"
       d="m 2.6458333,3.8416667 2.1166668,3e-7 c 0.5291666,10e-8 0.5291666,-0.5291666 0.5291666,-0.5291666 V 2.254167 c 0,0.5291666 -1.0583332,0.5291666 -1.0583332,0.5291666 l -1.5875002,-3e-7 c -0.5291666,0 -0.5291666,1.0583334 0,1.0583334 z"
       id="path823"
       inkscape:connector-curvature="0"
       sodipodi:nodetypes="csccccc" />
    <rect
       style="opacity:1;vector-effect:none;fill:#000000;fill-opacity:1;fill-rule:nonzero;stroke:none;stroke-width:0.5291667;stroke-linecap:butt;stroke-linejoin:miter;stroke-miterlimit:4;stroke-dasharray:none;stroke-dashoffset:0;stroke-opacity:1;paint-order:stroke fill markers"
       id="rect829"
       width="1.0583333"
       height="1.0583333"
       x="3.175"
       y="7.5458336"
       ry="0.26458308" />
    <path
       style="fill:#000000;fill-opacity:1;stroke:none;stroke-width:0.26458332px;stroke-linecap:butt;stroke-linejoin:miter;stroke-opacity:1"
       d="m 4.4979167,4.9 c 1.3229166,0 0.7937501,-2.1166665 1.8520834,-2.1166666 h 0.5291666 c 0,0 1.0583334,0 1.0583334,-0.5291666 l -1e-7,1.5874999 H 6.8791666 c -1.0583332,0 -1.0583333,1.5875001 -2.3812499,1.5875001"
       id="path831"
       inkscape:connector-curvature="0"
       sodipodi:nodetypes="cscccsc" />
    <path
       style="fill:#ffffff;fill-opacity:1;stroke:none;stroke-width:0.26458332px;stroke-linecap:butt;stroke-linejoin:miter;stroke-opacity:1"
       d="m 3.96875,5.1645774 c 0.2645833,0 0.2645833,0.2645833 0.2645833,0.2645833 0,0.2645833 -0.2644348,0.2644453 -0.5291667,0.2645833 -0.2645832,1.379e-4 -0.5291666,0 -0.5291666,-0.2645833 0,0 0,-0.2645833 0.2645833,-0.2645833 z"
       id="path836"
       inkscape:connector-curvature="0"
       sodipodi:nodetypes="scscss" />
  </g>
</svg>
